<svg xmlns="http://www.w3.org/2000/svg" width="17" height="15" fill="none" viewBox="0 0 17 15"><line x1="8" x2="11" y1="6.5" y2="6.5" stroke="#000"/><line x1="10.5" x2="10.5" y1="7" y2="9" stroke="#000"/><line x1="10" x2="6" y1="8.5" y2="8.5" stroke="#000"/><line x1="6.5" x2="6.5" y1="8" y2="4" stroke="#000"/><line x1="7" x2="10" y1="4.5" y2="4.5" stroke="#000"/><line x1="10" x2="13" y1="4.5" y2="4.5" stroke="#000"/><rect width="1" height="6" fill="#fff" transform="translate(12 5)"/><line x1="12.5" x2="12.5" y1="5" y2="11" stroke="#000"/><g clip-path="url(#clip0)"><rect width="1" height="6" fill="#fff" transform="translate(6 11) rotate(-90)"/><line x1="6" x2="12" y1="10.5" y2="10.5" stroke="#000"/></g><g clip-path="url(#clip1)"><rect width="1" height="6" fill="#fff" transform="translate(4 11) rotate(-90)"/><line x1="4" x2="10" y1="10.5" y2="10.5" stroke="#000"/></g><g clip-path="url(#clip2)"><rect width="1" height="6" fill="#fff" transform="translate(4 5)"/><line x1="4.5" x2="4.5" y1="5" y2="11" stroke="#000"/></g><g clip-path="url(#clip3)"><rect width="1" height="6" fill="#fff" transform="translate(4 2)"/><line x1="4.5" x2="4.5" y1="2" y2="8" stroke="#000"/></g><g clip-path="url(#clip4)"><rect width="1" height="6" fill="#fff" transform="translate(12 2) rotate(90)"/><line x1="12" x2="6" y1="2.5" y2="2.5" stroke="#000"/></g><g clip-path="url(#clip5)"><rect width="1" height="6" fill="#fff" transform="translate(15 2) rotate(90)"/><line x1="15" x2="9" y1="2.5" y2="2.5" stroke="#000"/></g><g clip-path="url(#clip6)"><rect width="1" height="6" fill="#fff" transform="translate(14 3)"/><line x1="14.5" x2="14.5" y1="3" y2="9" stroke="#000"/></g><g clip-path="url(#clip7)"><rect width="1" height="6" fill="#fff" transform="translate(14 7)"/><line x1="14.5" x2="14.5" y1="7" y2="13" stroke="#000"/></g><g clip-path="url(#clip8)"><rect width="1" height="6" fill="#fff" transform="translate(14 12) rotate(90)"/><line x1="14" x2="8" y1="12.5" y2="12.5" stroke="#000"/></g><g clip-path="url(#clip9)"><rect width="1" height="6" fill="#fff" transform="translate(8 12) rotate(90)"/><line x1="8" x2="2" y1="12.5" y2="12.5" stroke="#000"/></g><g clip-path="url(#clip10)"><rect width="1" height="6" fill="#fff" transform="translate(3 12) rotate(-180)"/><line x1="2.5" x2="2.5" y1="12" y2="6" stroke="#000"/></g><g clip-path="url(#clip11)"><rect width="1" height="6" fill="#fff" transform="translate(3 6) rotate(-180)"/><line x1="2.5" x2="2.5" y1="6" y2="0" stroke="#000"/></g><g clip-path="url(#clip12)"><rect width="1" height="6" fill="#fff" transform="translate(3 1) rotate(-90)"/><line x1="3" x2="9" y1=".5" y2=".5" stroke="#000"/></g><g clip-path="url(#clip13)"><rect width="1" height="6" fill="#fff" transform="translate(9 1) rotate(-90)"/><line x1="9" x2="15" y1=".5" y2=".5" stroke="#000"/></g><g clip-path="url(#clip14)"><rect width="1" height="6" fill="#fff" transform="translate(11 1) rotate(-90)"/><line x1="11" x2="17" y1=".5" y2=".5" stroke="#000"/></g><g clip-path="url(#clip15)"><rect width="1" height="6" fill="#fff" transform="translate(17 7) rotate(180)"/><line x1="16.5" x2="16.5" y1="7" y2="1" stroke="#000"/></g><g clip-path="url(#clip16)"><rect width="1" height="6" fill="#fff" transform="translate(17 7) rotate(180)"/><line x1="16.5" x2="16.5" y1="7" y2="1" stroke="#000"/></g><g clip-path="url(#clip17)"><rect width="1" height="6" fill="#fff" transform="translate(17 13) rotate(180)"/><line x1="16.5" x2="16.5" y1="13" y2="7" stroke="#000"/></g><g clip-path="url(#clip18)"><rect width="1" height="6" fill="#fff" transform="translate(17 15) rotate(180)"/><line x1="16.5" x2="16.5" y1="15" y2="9" stroke="#000"/></g><g clip-path="url(#clip19)"><rect width="1" height="6" fill="#fff" transform="translate(10 15) rotate(-90)"/><line x1="10" x2="16" y1="14.5" y2="14.5" stroke="#000"/></g><g clip-path="url(#clip20)"><rect width="1" height="6" fill="#fff" transform="translate(4 15) rotate(-90)"/><line x1="4" x2="10" y1="14.5" y2="14.5" stroke="#000"/></g><g clip-path="url(#clip21)"><rect width="1" height="6" fill="#fff" transform="translate(0 15) rotate(-90)"/><line x1="0" x2="6" y1="14.5" y2="14.5" stroke="#000"/></g><g clip-path="url(#clip22)"><rect width="1" height="6" fill="#fff" transform="translate(0 8)"/><line x1=".5" x2=".5" y1="8" y2="14" stroke="#000"/></g><g clip-path="url(#clip23)"><rect width="1" height="6" fill="#fff" transform="translate(0 2)"/><line x1=".5" x2=".5" y1="2" y2="8" stroke="#000"/></g><g clip-path="url(#clip24)"><rect width="1" height="6" fill="#fff"/><line x1=".5" x2=".5" y2="6" stroke="#000"/><g clip-path="url(#clip25)"><rect width="1" height="6" fill="#fff"/><line x1=".5" x2=".5" y2="6" stroke="#000"/></g></g><defs><clipPath id="clip0"><rect width="1" height="6" fill="#fff" transform="translate(6 11) rotate(-90)"/></clipPath><clipPath id="clip1"><rect width="1" height="6" fill="#fff" transform="translate(4 11) rotate(-90)"/></clipPath><clipPath id="clip2"><rect width="1" height="6" fill="#fff" transform="translate(4 5)"/></clipPath><clipPath id="clip3"><rect width="1" height="6" fill="#fff" transform="translate(4 2)"/></clipPath><clipPath id="clip4"><rect width="1" height="6" fill="#fff" transform="translate(12 2) rotate(90)"/></clipPath><clipPath id="clip5"><rect width="1" height="6" fill="#fff" transform="translate(15 2) rotate(90)"/></clipPath><clipPath id="clip6"><rect width="1" height="6" fill="#fff" transform="translate(14 3)"/></clipPath><clipPath id="clip7"><rect width="1" height="6" fill="#fff" transform="translate(14 7)"/></clipPath><clipPath id="clip8"><rect width="1" height="6" fill="#fff" transform="translate(14 12) rotate(90)"/></clipPath><clipPath id="clip9"><rect width="1" height="6" fill="#fff" transform="translate(8 12) rotate(90)"/></clipPath><clipPath id="clip10"><rect width="1" height="6" fill="#fff" transform="translate(3 12) rotate(-180)"/></clipPath><clipPath id="clip11"><rect width="1" height="6" fill="#fff" transform="translate(3 6) rotate(-180)"/></clipPath><clipPath id="clip12"><rect width="1" height="6" fill="#fff" transform="translate(3 1) rotate(-90)"/></clipPath><clipPath id="clip13"><rect width="1" height="6" fill="#fff" transform="translate(9 1) rotate(-90)"/></clipPath><clipPath id="clip14"><rect width="1" height="6" fill="#fff" transform="translate(11 1) rotate(-90)"/></clipPath><clipPath id="clip15"><rect width="1" height="6" fill="#fff" transform="translate(17 7) rotate(180)"/></clipPath><clipPath id="clip16"><rect width="1" height="6" fill="#fff" transform="translate(17 7) rotate(180)"/></clipPath><clipPath id="clip17"><rect width="1" height="6" fill="#fff" transform="translate(17 13) rotate(180)"/></clipPath><clipPath id="clip18"><rect width="1" height="6" fill="#fff" transform="translate(17 15) rotate(180)"/></clipPath><clipPath id="clip19"><rect width="1" height="6" fill="#fff" transform="translate(10 15) rotate(-90)"/></clipPath><clipPath id="clip20"><rect width="1" height="6" fill="#fff" transform="translate(4 15) rotate(-90)"/></clipPath><clipPath id="clip21"><rect width="1" height="6" fill="#fff" transform="translate(0 15) rotate(-90)"/></clipPath><clipPath id="clip22"><rect width="1" height="6" fill="#fff" transform="translate(0 8)"/></clipPath><clipPath id="clip23"><rect width="1" height="6" fill="#fff" transform="translate(0 2)"/></clipPath><clipPath id="clip24"><rect width="1" height="6" fill="#fff"/></clipPath><clipPath id="clip25"><rect width="1" height="6" fill="#fff"/></clipPath></defs></svg>