<svg xmlns="http://www.w3.org/2000/svg" width="45" height="44" fill="none" viewBox="0 0 45 44"><rect width="2.273" height="43.28" fill="#000" rx="1.136"/><rect width="2.208" height="45" y="43.28" fill="#000" rx="1.104" transform="rotate(-90 0 43.2803)"/><rect width="2.273" height="43.28" x="42.727" fill="#000" rx="1.136"/><rect width="2.208" height="39.545" x="4.318" y="2.208" fill="#000" rx="1.104" transform="rotate(-90 4.31787 2.20801)"/><rect width="2.273" height="38.643" x="6.591" y="38.643" fill="#000" rx="1.136" transform="rotate(-180 6.59082 38.6426)"/><rect width="2.208" height="36.136" x="40.455" y="36.435" fill="#000" rx="1.104" transform="rotate(90 40.4546 36.4346)"/><rect width="2.273" height="34.227" x="40.455" y="38.643" fill="#000" rx="1.136" transform="rotate(-180 40.4546 38.6426)"/><rect width="2.208" height="31.364" x="40.455" y="4.416" fill="#000" rx="1.104" transform="rotate(90 40.4546 4.41602)"/><rect width="2.273" height="29.59" x="9.091" y="4.416" fill="#000" rx="1.136"/><rect width="2.208" height="24.773" x="9.091" y="34.006" fill="#000" rx="1.104" transform="rotate(-90 9.09082 34.0059)"/><rect width="2.273" height="23.848" x="32.5" y="10.157" fill="#000" rx="1.136"/><rect width="2.208" height="20.909" x="13.864" y="11.482" fill="#000" rx="1.104" transform="rotate(-90 13.8638 11.4824)"/><rect width="2.273" height="19.653" x="16.136" y="29.148" fill="#000" rx="1.136" transform="rotate(180 16.1362 29.1484)"/><rect width="2.208" height="16.364" x="30.227" y="27.16" fill="#000" rx="1.104" transform="rotate(90 30.2271 27.1602)"/><rect width="2.273" height="15.678" x="30.455" y="29.369" fill="#000" rx="1.136" transform="rotate(180 30.4546 29.3691)"/><rect width="2.208" height="11.818" x="30.227" y="13.69" fill="#000" rx="1.104" transform="rotate(90 30.2271 13.6904)"/><rect width="2.273" height="11.482" x="18.182" y="13.69" fill="#000" rx="1.136"/><rect width="2.208" height="7.727" x="18.182" y="25.173" fill="#000" rx="1.104" transform="rotate(-90 18.1821 25.1729)"/><rect width="2.273" height="7.508" x="24.318" y="17.666" fill="#000" rx="1.136"/><rect width="2.208" height="5.227" x="21.364" y="19.432" fill="#000" rx="1.104" transform="rotate(-90 21.3638 19.4316)"/></svg>