<svg xmlns="http://www.w3.org/2000/svg" width="40" height="38" fill="none" viewBox="0 0 40 38"><rect width="1.995" height="38" y=".001" fill="#fff" rx=".998"/><rect width="1.939" height="39.51" y="38" fill="#fff" rx=".969" transform="rotate(-90 0 38)"/><rect width="1.995" height="38" x="37.514" fill="#fff" rx=".998"/><rect width="1.939" height="34.721" x="3.791" y="1.938" fill="#fff" rx=".969" transform="rotate(-90 3.79126 1.93848)"/><rect width="1.995" height="33.928" x="5.787" y="33.929" fill="#fff" rx=".998" transform="rotate(-180 5.78687 33.9287)"/><rect width="1.939" height="31.727" x="35.519" y="31.989" fill="#fff" rx=".969" transform="rotate(90 35.5188 31.9893)"/><rect width="1.995" height="30.051" x="35.519" y="33.929" fill="#fff" rx=".998" transform="rotate(-180 35.5188 33.9287)"/><rect width="1.939" height="27.537" x="35.519" y="3.878" fill="#fff" rx=".969" transform="rotate(90 35.5188 3.87793)"/><rect width="1.995" height="25.979" x="7.982" y="3.878" fill="#fff" rx=".998"/><rect width="1.939" height="21.75" x="7.982" y="29.857" fill="#fff" rx=".969" transform="rotate(-90 7.98169 29.8574)"/><rect width="1.995" height="20.939" x="28.535" y="8.919" fill="#fff" rx=".998"/><rect width="1.939" height="18.358" x="12.172" y="10.082" fill="#fff" rx=".969" transform="rotate(-90 12.1721 10.082)"/><rect width="1.995" height="17.255" x="14.168" y="25.592" fill="#fff" rx=".998" transform="rotate(180 14.1677 25.5918)"/><rect width="1.939" height="14.367" x="26.539" y="23.847" fill="#fff" rx=".969" transform="rotate(90 26.5393 23.8467)"/><rect width="1.995" height="13.765" x="26.739" y="25.785" fill="#fff" rx=".998" transform="rotate(180 26.7388 25.7852)"/><rect width="1.939" height="10.376" x="26.539" y="12.021" fill="#fff" rx=".969" transform="rotate(90 26.5393 12.0205)"/><rect width="1.995" height="10.082" x="15.964" y="12.021" fill="#fff" rx=".998"/><rect width="1.939" height="6.784" x="15.964" y="22.102" fill="#fff" rx=".969" transform="rotate(-90 15.9636 22.1016)"/><rect width="1.995" height="6.592" x="21.351" y="15.51" fill="#fff" rx=".998"/><rect width="1.939" height="4.59" x="18.757" y="17.061" fill="#fff" rx=".969" transform="rotate(-90 18.7571 17.0615)"/></svg>